<svg xmlns="http://www.w3.org/2000/svg" width="1600" height="1067" viewBox="0 0 1600 1067" role="img" aria-labelledby="t d">
<title id="t">PV-Anlagenreinigung</title><desc id="d">ALH Hausmeisterservice</desc>
<defs>
  <linearGradient id="g" x1="0" x2="1" y1="0" y2="1">
    <stop offset="0" stop-color="#f4f7f5"/>
    <stop offset="0.55" stop-color="#e8eef1"/>
    <stop offset="1" stop-color="#dfe9dc"/>
  </linearGradient>
  <pattern id="p" width="80" height="80" patternUnits="userSpaceOnUse">
    <path d="M80 0H0v80" fill="none" stroke="#ffffff" stroke-opacity=".75" stroke-width="2"/>
  </pattern>
</defs>
<rect width="1600" height="1067" fill="url(#g)"/>
<rect width="1600" height="1067" fill="url(#p)" opacity=".55"/>
<path d="M0 820c210-80 390-55 560-5 220 65 375 78 610-25 170-75 300-102 430-70v347H0z" fill="#0F2F4F" opacity=".10"/>
<circle cx="1320" cy="235" r="150" fill="#5EA52A" opacity=".18"/>
<rect x="132" y="132" width="1336" height="803" rx="22" fill="none" stroke="#0F2F4F" stroke-opacity=".16" stroke-width="3"/>
<g transform="translate(180 188)">
  <rect width="116" height="116" rx="20" fill="#0F2F4F"/>
  <path d="M32 65l18 18 38-50" fill="none" stroke="#5EA52A" stroke-width="12" stroke-linecap="round" stroke-linejoin="round"/>
</g>
<text x="180" y="560" font-family="Arial, Helvetica, sans-serif" font-size="68" font-weight="700" fill="#0F2F4F">PV-Anlagenreinigung</text>
<text x="180" y="630" font-family="Arial, Helvetica, sans-serif" font-size="30" fill="#35506a">ALH Hausmeisterservice</text>
<text x="180" y="824" font-family="Arial, Helvetica, sans-serif" font-size="24" fill="#5b6f7f">Professionelle Leistung im Raum Heilbronn</text>
</svg>